<?xml version="1.0" encoding="utf-8"?>
<!-- Generator: Adobe Illustrator 16.0.4, SVG Export Plug-In . SVG Version: 6.00 Build 0)  -->
<!DOCTYPE svg PUBLIC "-//W3C//DTD SVG 1.1//EN" "http://www.w3.org/Graphics/SVG/1.1/DTD/svg11.dtd">
<svg version="1.1" id="Layer_1" xmlns="http://www.w3.org/2000/svg" xmlns:xlink="http://www.w3.org/1999/xlink" x="0px" y="0px"
	 width="50px" height="300.246px" viewBox="0 0 50 300.246" enable-background="new 0 0 50 300.246" xml:space="preserve">
<path d="M38.965,109.628l-25.913,21.26l0.915,1.113l0.278-0.229l9.373,11.425l11.702-9.601l-0.458-0.559l0,0l-8.915-10.866
	l13.93-11.43L38.965,109.628z M18.147,128.572l4.178-3.429l9.145,11.144l-4.179,3.432L18.147,128.572z"/>
<path d="M43.266,69.395H9.666v2.932l0,0v13.168h15.4l0,0l0,0V70.795h18.201V69.395z M14.565,70.795h5.6v14h-5.6V70.795z"/>
<path d="M40.024,37.825L21.205,10.151l-0.948,0.645l0.177,0.26L8.149,19.41l8.595,12.642l0.159-0.106l0.049,0.072l12.127-8.246
	l9.995,14.699L40.024,37.825z M23.306,15.278l3.011,4.427l-11.969,8.139l-3.011-4.426L23.306,15.278z"/>
<path d="M11.588,259.575l13.93,11.43l-8.915,10.866l0,0l-0.458,0.559l11.702,9.601l9.373-11.425l0.278,0.229l0.915-1.113
	l-25.912-21.26L11.588,259.575z M24.175,288.552l-4.179-3.432l9.145-11.144l4.178,3.429L24.175,288.552z"/>
<path d="M8.201,224.301h18.2V239l0,0l0,0h15.4v-13.168l0,0V222.9H8.201V224.301z M36.901,238.301h-5.6v-14h5.6V238.301z"/>
<path d="M11.477,189.406l9.995-14.699l12.128,8.246l0.049-0.072l0.158,0.106l8.596-12.642l-12.285-8.354l0.178-0.26l-0.948-0.645
	l-18.819,27.674L11.477,189.406z M39.215,174.354l-3.01,4.426l-11.97-8.139l3.011-4.427L39.215,174.354z"/>
<g>
</g>
<g>
</g>
<g>
</g>
<g>
</g>
<g>
</g>
<g>
</g>
</svg>
