<?xml version="1.0" encoding="utf-8"?>
<!-- Generator: Adobe Illustrator 16.0.4, SVG Export Plug-In . SVG Version: 6.00 Build 0)  -->
<!DOCTYPE svg PUBLIC "-//W3C//DTD SVG 1.1//EN" "http://www.w3.org/Graphics/SVG/1.1/DTD/svg11.dtd">
<svg version="1.1" id="Layer_1" xmlns="http://www.w3.org/2000/svg" xmlns:xlink="http://www.w3.org/1999/xlink" x="0px" y="0px"
	 width="205.998px" height="32.667px" viewBox="0 0 205.998 32.667" enable-background="new 0 0 205.998 32.667"
	 xml:space="preserve">
<g>
	<rect x="58.585" y="7.096" fill="#2C9C2E" width="5.114" height="25.571"/>
	<path fill="#27992F" d="M64.893,27.552c4.236,0,7.672-3.434,7.672-7.671s-3.436-7.671-7.672-7.671V7.096
		c7.061,0,12.785,5.724,12.785,12.786c0,7.061-5.725,12.785-12.785,12.785V27.552z"/>
</g>
<g>
	<path fill="#F59112" d="M29.754,17.324c1.412,0,2.558-1.145,2.558-2.557s-1.146-2.557-2.558-2.557V7.096
		c4.236,0,7.671,3.435,7.671,7.671s-3.435,7.671-7.671,7.671V17.324z"/>
	<rect x="23.446" y="7.096" fill="#D66010" width="5.114" height="25.571"/>
</g>
<g>
	<g>
		<path fill="#AD2A15" d="M12.99,27.553c1.412,0,2.558-1.145,2.558-2.557c0-1.413-1.146-2.557-2.558-2.557v-5.114
			c4.236,0,7.671,3.434,7.671,7.671s-3.435,7.671-7.671,7.671V27.553z"/>
	</g>
	<g>
		<path fill="#C62D0C" d="M11.797,12.21c-1.412,0-2.557,1.145-2.557,2.557s1.145,2.557,2.557,2.557v5.114
			c-4.236,0-7.671-3.434-7.671-7.671s3.435-7.671,7.671-7.671V12.21z"/>
	</g>
</g>
<g>
	<rect x="41.026" y="7.096" fill="#B6C624" width="12.594" height="5.114"/>
	<rect x="48.506" y="13.233" fill="#B1C620" width="5.114" height="10.739"/>
	<path fill="#A8B21D" d="M43.392,24.996c0,1.412,1.146,2.557,2.558,2.557c1.411,0,2.557-1.145,2.557-2.557h5.114
		c0,4.237-3.435,7.671-7.671,7.671c-4.237,0-7.672-3.434-7.672-7.671H43.392z"/>
</g>
<g>
	<path fill="#1C8BBD" d="M87.203,17.324c1.412,0,2.557-1.145,2.557-2.557s-1.145-2.557-2.557-2.557V7.096
		c4.236,0,7.671,3.435,7.671,7.671s-3.435,7.671-7.671,7.671V17.324z"/>
	<rect x="81.065" y="7.096" fill="#1E727F" width="5.114" height="25.571"/>
	<polygon fill="#1E278E" points="87.203,23.12 92.307,23.12 94.857,32.646 89.754,32.646 	"/>
</g>
<g>
	<path fill="#333333" d="M99.72,19.878c-0.275-0.257-0.333-0.497-0.173-0.719l0.599-0.839c0.195-0.267,0.484-0.253,0.866,0.04
		c0.523,0.399,1.107,0.719,1.751,0.958s1.379,0.36,2.204,0.36c0.488,0,0.924-0.06,1.306-0.18c0.382-0.12,0.717-0.344,1.005-0.673
		c0.289-0.328,0.434-0.768,0.434-1.318c0-0.32-0.069-0.622-0.207-0.906s-0.351-0.513-0.639-0.686
		c-0.289-0.173-0.571-0.308-0.846-0.406c-0.453-0.17-0.904-0.311-1.353-0.422c-0.448-0.111-1.036-0.283-1.765-0.516
		c-0.488-0.15-0.95-0.365-1.385-0.644c-0.436-0.279-0.814-0.658-1.139-1.136s-0.486-1.139-0.486-1.983
		c0-0.861,0.262-1.603,0.786-2.224c0.523-0.621,1.181-1.045,1.971-1.271c0.79-0.227,1.559-0.34,2.305-0.34
		c1.101,0,1.986,0.126,2.656,0.379c0.671,0.253,1.25,0.553,1.738,0.899c0.284,0.204,0.324,0.439,0.12,0.706l-0.6,0.799
		c-0.187,0.257-0.475,0.249-0.865-0.027c-0.329-0.231-0.795-0.448-1.398-0.652c-0.604-0.205-1.133-0.307-1.585-0.307
		c-0.56,0-1.039,0.062-1.438,0.187c-0.399,0.125-0.724,0.337-0.973,0.639c-0.248,0.302-0.373,0.657-0.373,1.065
		c0,0.311,0.049,0.588,0.146,0.833s0.28,0.468,0.547,0.672c0.266,0.205,0.639,0.369,1.118,0.493
		c0.746,0.195,1.428,0.373,2.045,0.533c0.616,0.16,1.174,0.355,1.671,0.585c0.648,0.302,1.147,0.635,1.498,0.999
		c0.351,0.364,0.593,0.757,0.727,1.179c0.133,0.422,0.199,0.891,0.199,1.405c0,0.95-0.282,1.753-0.846,2.411
		s-1.191,1.094-1.885,1.312c-0.692,0.218-1.526,0.327-2.503,0.327c-1.323,0-2.458-0.189-3.403-0.566
		C100.605,20.466,99.995,20.145,99.72,19.878z"/>
	<path fill="#333333" d="M111.719,14.191c0-2.202,0.551-3.955,1.651-5.26c1.102-1.305,2.677-1.958,4.729-1.958
		c1.704,0,3.118,0.597,4.241,1.792c1.123,1.194,1.685,3.101,1.685,5.72c0,0.4-0.183,0.6-0.549,0.6h-9.333
		c0.152,1.719,0.617,2.914,1.396,3.586c0.777,0.672,1.658,1.008,2.642,1.008c1.037,0,1.833-0.173,2.388-0.52
		c0.554-0.347,0.961-0.689,1.22-1.027c0.284-0.373,0.56-0.444,0.826-0.213l0.786,0.68c0.204,0.178,0.204,0.422,0,0.733
		c-0.169,0.256-0.651,0.666-1.445,1.231c-0.795,0.565-2.045,0.847-3.749,0.847c-2.22,0-3.855-0.653-4.908-1.958
		C112.245,18.146,111.719,16.393,111.719,14.191z M114.143,13.352h7.525c-0.036-1.243-0.355-2.333-0.959-3.27
		c-0.604-0.937-1.492-1.405-2.664-1.405c-1.03,0-1.904,0.344-2.623,1.032C114.702,10.398,114.276,11.612,114.143,13.352z"/>
	<path fill="#333333" d="M127.093,21.183c-0.395,0-0.592-0.2-0.592-0.599V7.798c0-0.399,0.199-0.599,0.599-0.599h1.119
		c0.399,0,0.6,0.2,0.6,0.599v1.065c0.572-0.639,1.194-1.114,1.864-1.425c0.67-0.311,1.313-0.466,1.931-0.466
		c1.138,0,2.013,0.21,2.626,0.629c0.612,0.419,1.007,0.84,1.184,1.262h0.053c0.482-0.533,1.092-0.981,1.828-1.345
		c0.736-0.364,1.521-0.546,2.354-0.546c1.394,0,2.446,0.455,3.156,1.365s1.065,2.155,1.065,3.736v8.51c0,0.399-0.2,0.599-0.6,0.599
		h-1.146c-0.399,0-0.6-0.2-0.6-0.599v-7.738c0-1.74-0.213-2.866-0.64-3.376c-0.428-0.51-1.086-0.766-1.975-0.766
		c-0.871,0-1.599,0.379-2.183,1.139s-0.876,1.902-0.876,3.429v7.312c0,0.399-0.2,0.599-0.6,0.599h-1.146c-0.399,0-0.6-0.2-0.6-0.599
		v-7.738c0-1.74-0.214-2.866-0.644-3.376c-0.429-0.51-1.09-0.766-1.982-0.766c-0.876,0-1.607,0.344-2.194,1.032
		c-0.586,0.688-0.879,1.867-0.879,3.536v7.312c0,0.399-0.198,0.599-0.593,0.599H127.093z"/>
	<path fill="#333333" d="M147.489,17.454c0-1.581,0.739-2.739,2.218-3.476s3.687-1.167,6.626-1.292v-0.905
		c0-0.834-0.189-1.556-0.566-2.165c-0.377-0.608-1.125-0.912-2.244-0.912c-0.71,0-1.278,0.069-1.705,0.207
		c-0.426,0.138-0.814,0.319-1.165,0.546s-0.686,0.517-1.005,0.872c-0.24,0.267-0.467,0.28-0.68,0.04l-0.692-0.799
		c-0.195-0.222-0.129-0.488,0.199-0.799c0.471-0.444,0.928-0.777,1.372-0.999c0.444-0.222,0.997-0.411,1.658-0.566
		c0.661-0.155,1.334-0.233,2.018-0.233c1.855,0,3.179,0.478,3.969,1.432c0.79,0.955,1.186,2.262,1.186,3.922v8.257
		c0,0.399-0.202,0.599-0.606,0.599h-1.212c-0.351,0-0.525-0.2-0.525-0.599v-0.653c-0.702,0.551-1.388,0.935-2.058,1.152
		c-0.671,0.218-1.419,0.327-2.244,0.327c-1.457,0-2.577-0.349-3.363-1.045C147.883,19.667,147.489,18.697,147.489,17.454z
		 M149.913,17.507c0,0.551,0.115,0.992,0.347,1.325c0.23,0.333,0.55,0.546,0.959,0.639c0.408,0.093,0.834,0.14,1.278,0.14
		c0.684,0,1.332-0.066,1.944-0.2c0.612-0.133,1.243-0.484,1.892-1.052v-3.929c-1.794,0.133-3.072,0.295-3.836,0.486
		s-1.385,0.52-1.864,0.985C150.153,16.369,149.913,16.904,149.913,17.507z"/>
	<path fill="#333333" d="M161.166,8.957c-0.399,0-0.599-0.155-0.599-0.466V7.665c0-0.311,0.199-0.466,0.599-0.466h1.426V5.215
		c0-1.483,0.399-2.506,1.198-3.07s1.714-0.846,2.743-0.846c0.613,0,1.107,0.031,1.485,0.093c0.377,0.062,0.823,0.2,1.339,0.413
		c0.194,0.08,0.253,0.222,0.173,0.426l-0.413,1.052c-0.071,0.178-0.227,0.213-0.466,0.106c-0.195-0.089-0.436-0.171-0.72-0.247
		c-0.284-0.075-0.59-0.113-0.919-0.113c-0.736,0-1.268,0.177-1.591,0.533c-0.324,0.355-0.486,1.034-0.486,2.038v1.598h2.438
		c0.399,0,0.599,0.155,0.599,0.466v0.826c0,0.311-0.199,0.466-0.599,0.466h-2.438v11.627c0,0.399-0.2,0.599-0.6,0.599h-1.146
		c-0.399,0-0.599-0.2-0.599-0.599V8.957H161.166z"/>
	<path fill="#333333" d="M169.183,14.191c0-2.086,0.553-3.811,1.658-5.174s2.724-2.044,4.854-2.044s3.749,0.682,4.854,2.044
		s1.658,3.087,1.658,5.174c0,2.087-0.553,3.812-1.658,5.174s-2.724,2.044-4.854,2.044s-3.749-0.682-4.854-2.044
		S169.183,16.278,169.183,14.191z M171.66,14.191c0,1.865,0.368,3.246,1.105,4.142c0.736,0.897,1.713,1.345,2.93,1.345
		s2.193-0.448,2.93-1.345c0.737-0.896,1.105-2.277,1.105-4.142c0-1.864-0.368-3.245-1.105-4.142
		c-0.736-0.897-1.713-1.345-2.93-1.345s-2.193,0.448-2.93,1.345C172.028,10.946,171.66,12.327,171.66,14.191z"/>
	<path fill="#333333" d="M185.224,21.183c-0.395,0-0.592-0.2-0.592-0.599V7.798c0-0.399,0.199-0.599,0.599-0.599h1.119
		c0.399,0,0.6,0.2,0.6,0.599v1.598c0.43-0.799,0.937-1.403,1.521-1.811c0.583-0.408,1.31-0.613,2.18-0.613
		c0.574,0,0.978,0.049,1.211,0.146c0.204,0.08,0.28,0.213,0.227,0.399l-0.307,1.092c-0.044,0.16-0.159,0.222-0.346,0.187
		c-0.312-0.062-0.606-0.093-0.884-0.093c-1.045,0-1.906,0.468-2.584,1.405c-0.679,0.937-1.018,2.213-1.018,3.829v6.646
		c0,0.399-0.198,0.599-0.593,0.599H185.224z"/>
	<path fill="#333333" d="M192.888,14.191c0-2.202,0.551-3.955,1.651-5.26c1.102-1.305,2.677-1.958,4.729-1.958
		c1.704,0,3.118,0.597,4.241,1.792c1.123,1.194,1.685,3.101,1.685,5.72c0,0.4-0.183,0.6-0.549,0.6h-9.333
		c0.152,1.719,0.617,2.914,1.396,3.586c0.777,0.672,1.658,1.008,2.642,1.008c1.037,0,1.833-0.173,2.388-0.52
		c0.554-0.347,0.961-0.689,1.22-1.027c0.284-0.373,0.56-0.444,0.826-0.213l0.786,0.68c0.204,0.178,0.204,0.422,0,0.733
		c-0.169,0.256-0.651,0.666-1.445,1.231c-0.795,0.565-2.045,0.847-3.749,0.847c-2.22,0-3.855-0.653-4.908-1.958
		C193.414,18.146,192.888,16.393,192.888,14.191z M195.312,13.352h7.525c-0.036-1.243-0.355-2.333-0.959-3.27
		c-0.604-0.937-1.492-1.405-2.664-1.405c-1.03,0-1.904,0.344-2.623,1.032C195.871,10.398,195.445,11.612,195.312,13.352z"/>
</g>
<g>
	<g>
		<path fill="#991217" d="M12.99,27.552c1.412,0,2.558-1.145,2.558-2.557c0-1.413-1.146-2.557-2.558-2.557
			c0,0,7.671-1.68,7.671,2.557s-3.435,7.671-7.671,7.671V27.552z"/>
	</g>
	<g>
		<path fill="#D3140B" d="M11.797,12.209c-1.412,0-2.557,1.145-2.557,2.557s1.145,2.557,2.557,2.557c0,0-7.671,1.68-7.671-2.557
			s3.435-7.671,7.671-7.671V12.209z"/>
	</g>
</g>
<g>
	<path fill="#D67813" d="M33.966,16.89c1.362-4.826,3.459-6.359,3.459-2.123s-3.435,7.671-7.671,7.671
		C29.754,22.438,32.546,21.92,33.966,16.89z"/>
	<path fill="#F36213" d="M23.446,24.996v-17.9h5.114c0,0-2.324,5.678-2.895,7.671C24.957,17.249,23.446,24.996,23.446,24.996z"/>
</g>
<g>
	<polygon fill="#E0E312" points="41.026,12.21 41.026,7.096 53.62,7.096 	"/>
	<polygon fill="#A8B21D" points="53.62,23.972 48.506,23.972 48.506,13.233 	"/>
	<path fill="#CADB1A" d="M43.392,24.996c0,1.412,1.146,2.557,2.558,2.557c1.411,0,2.557-1.145,2.557-2.557
		c0,0,1.68,7.671-2.557,7.671c-4.237,0-7.672-3.434-7.672-7.671H43.392z"/>
</g>
<g>
	<polygon fill="#7AB922" points="58.585,32.667 58.585,7.096 63.699,7.096 	"/>
	<path fill="#196E25" d="M64.893,27.552c4.236,0,7.672-3.434,7.672-7.671s-3.436-7.671-7.672-7.671c0,0,12.785,0.61,12.785,7.671
		c0,7.061-5.725,12.785-12.785,12.785V27.552z"/>
</g>
<g>
	<path fill="#195BA1" d="M87.203,17.324c1.412,0,2.557-1.145,2.557-2.557s-1.145-2.557-2.557-2.557c0,0,7.671-1.68,7.671,2.557
		s-3.435,7.671-7.671,7.671V17.324z"/>
	<polygon fill="#24A697" points="81.065,32.667 81.065,7.096 86.18,7.096 	"/>
	<polygon fill="#213C98" points="87.203,23.12 92.307,23.12 94.857,32.646 	"/>
</g>
</svg>
